<?xml version="1.0" encoding="utf-8"?>
<!-- Generator: Adobe Illustrator 16.0.4, SVG Export Plug-In . SVG Version: 6.00 Build 0)  -->
<!DOCTYPE svg PUBLIC "-//W3C//DTD SVG 1.1//EN" "http://www.w3.org/Graphics/SVG/1.1/DTD/svg11.dtd">
<svg version="1.1" id="Layer_1" xmlns="http://www.w3.org/2000/svg" xmlns:xlink="http://www.w3.org/1999/xlink" x="0px" y="0px"
	 width="25px" height="25px" viewBox="0 0 25 25" enable-background="new 0 0 25 25" xml:space="preserve">
<path fill="#0066CC" d="M20.728,9.362c-0.074-0.24-0.272-0.415-0.511-0.451l-5.023-0.763l-2.246-4.756
	c-0.106-0.226-0.326-0.369-0.568-0.369c-0.24,0-0.461,0.144-0.567,0.369L9.565,8.148L4.543,8.911
	C4.304,8.947,4.105,9.122,4.031,9.362c-0.074,0.239-0.013,0.503,0.16,0.679l3.635,3.701l-0.858,5.227
	c-0.04,0.249,0.058,0.5,0.252,0.647c0.195,0.148,0.454,0.168,0.667,0.051l4.492-2.467l4.493,2.467
	c0.093,0.051,0.193,0.076,0.294,0.076c0.132,0,0.263-0.042,0.373-0.127c0.195-0.147,0.293-0.398,0.252-0.647l-0.857-5.227
	l3.634-3.701C20.74,9.865,20.803,9.602,20.728,9.362z"/>
</svg>
