<?xml version="1.0" encoding="utf-8"?>
<!-- Generator: Adobe Illustrator 16.0.4, SVG Export Plug-In . SVG Version: 6.00 Build 0)  -->
<!DOCTYPE svg PUBLIC "-//W3C//DTD SVG 1.1//EN" "http://www.w3.org/Graphics/SVG/1.1/DTD/svg11.dtd">
<svg version="1.1" id="Layer_1" xmlns="http://www.w3.org/2000/svg" xmlns:xlink="http://www.w3.org/1999/xlink" x="0px" y="0px"
	 width="25px" height="25px" viewBox="0 0 25 25" enable-background="new 0 0 25 25" xml:space="preserve">
<path fill="#0066C9" d="M22.593,12.302c-0.928-1.198-2.362-1.802-4.284-1.802H12.5V4.235c0-0.266,0.209-0.51-0.017-0.632
	s-0.236-0.103-0.444,0.052L1.765,11.304c-0.18,0.133-0.265,0.35-0.265,0.58s0.118,0.446,0.298,0.58l10.324,7.647
	c0.117,0.088,0.258,0.132,0.396,0.132c0.107,0-0.136-0.026-0.037-0.079c0.226-0.123,0.019-0.366,0.019-0.633V14.5h5.809
	c0.834,0,1.436-0.084,1.696,0.241c0.279,0.35,0.404,0.837,0.376,1.001l0.119,0.232v1.482c0,0.962,0.579,1.741,1.5,1.741
	s1.5-0.779,1.5-1.741v-1.339C23.5,15.488,23.712,13.747,22.593,12.302z"/>
</svg>
