<?xml version="1.0" encoding="utf-8"?>
<!-- Generator: Adobe Illustrator 16.0.4, SVG Export Plug-In . SVG Version: 6.00 Build 0)  -->
<!DOCTYPE svg PUBLIC "-//W3C//DTD SVG 1.1//EN" "http://www.w3.org/Graphics/SVG/1.1/DTD/svg11.dtd">
<svg version="1.1" id="Layer_1" xmlns="http://www.w3.org/2000/svg" xmlns:xlink="http://www.w3.org/1999/xlink" x="0px" y="0px"
	 width="25px" height="25px" viewBox="0 0 25 25" enable-background="new 0 0 25 25" xml:space="preserve">
<g>
	<path fill="#0066CC" d="M12.239,17.5H7.854l-0.458-0.25c-0.081,0.006-0.309-0.353-0.611-0.643c-0.209-0.2-0.285-0.77-0.285-1.303
		V12.5h3.172c0.161,0,0.309-0.195,0.382-0.345c0.074-0.149,0.062-0.472-0.031-0.61L5.402,4.758C5.322,4.64,5.19,4.58,5.052,4.58
		c-0.14,0-0.271,0.076-0.351,0.195l-4.622,6.81C0.026,11.662,0,11.755,0,11.847c0,0.07,0.016,0.243,0.048,0.308
		C0.122,12.304,0.27,12.5,0.43,12.5H2.5v2.805c0,1.887,1.1,2.991,1.719,3.584c1.104,1.059,2.365,1.258,3.094,1.508
		c0.081,0.027,0.539,0.104,0.59,0.104h4.336c0.89,0,1.611-0.57,1.611-1.5C13.85,18.071,13.128,17.5,12.239,17.5z"/>
	<path fill="#0066CC" d="M24.949,13.512c-0.074-0.149-0.221-0.012-0.382-0.012H20.5v-3.471c0-2.031-0.261-2.688-0.998-3.135
		c-1.105-0.671-2.4-0.58-2.814-0.58L12.239,6.5c-0.89,0-1.611,0.07-1.611,1c0,0.929,0.721,1,1.611,1h4.906l0.167,0.055
		c0.006,0-0.005,0.049,0.146,0.19C17.654,8.931,17.5,9.42,17.5,10.029V13.5h-2.175c-0.161,0-0.308-0.138-0.383,0.012
		c-0.073,0.148-0.061,0.138,0.031,0.274l4.622,6.788c0.081,0.119,0.211,0.18,0.351,0.18s0.27-0.075,0.351-0.194l4.622-6.811
		c0.052-0.077,0.079-0.129,0.079-0.222C24.998,13.458,24.981,13.576,24.949,13.512z"/>
</g>
</svg>
