<?xml version="1.0" encoding="utf-8"?>
<!-- Generator: Adobe Illustrator 16.0.4, SVG Export Plug-In . SVG Version: 6.00 Build 0)  -->
<!DOCTYPE svg PUBLIC "-//W3C//DTD SVG 1.1//EN" "http://www.w3.org/Graphics/SVG/1.1/DTD/svg11.dtd">
<svg version="1.1" id="Layer_1" xmlns="http://www.w3.org/2000/svg" xmlns:xlink="http://www.w3.org/1999/xlink" x="0px" y="0px"
	 width="64px" height="64px" viewBox="0 0 64 64" enable-background="new 0 0 64 64" xml:space="preserve">
<g>
	<path fill="#FFFFFF" d="M31.942,0c8.99,0,16.57,3.085,22.742,9.256C60.893,15.428,64,23.009,64,32
		c0,8.992-3.048,16.477-9.145,22.458C48.38,60.82,40.741,64,31.942,64c-8.687,0-16.19-3.162-22.514-9.484
		C3.144,48.229,0,40.725,0,32c0-8.762,3.144-16.343,9.429-22.743C15.6,3.086,23.104,0,31.942,0z M7.2,23.372
		C6.248,26,5.771,28.877,5.771,32.001c0,7.086,2.59,13.22,7.77,18.399c5.219,5.145,11.391,7.716,18.514,7.716
		c7.201,0,13.409-2.608,18.63-7.829c1.866-1.79,3.332-3.657,4.397-5.602l-12.056-5.371c-0.422,2.02-1.439,3.666-3.059,4.94
		c-1.621,1.276-3.535,2.013-5.744,2.2v4.915h-3.714v-4.915c-3.543-0.036-6.781-1.312-9.714-3.827l4.4-4.457
		c2.094,1.94,4.476,2.913,7.143,2.913c1.104,0,2.049-0.246,2.83-0.743c0.78-0.493,1.172-1.312,1.172-2.457
		c0-0.801-0.287-1.446-0.857-1.942L32.4,34.627l-3.771-1.715l-5.086-2.229L7.2,23.372z M32.057,5.714
		c-7.275,0-13.428,2.571-18.457,7.714c-1.258,1.258-2.438,2.687-3.543,4.287L22.286,23.2c0.533-1.677,1.542-3.019,3.029-4.028
		c1.483-1.009,3.218-1.57,5.199-1.686V12.57h3.716v4.916c2.934,0.152,5.6,1.143,8,2.971l-4.174,4.286
		c-1.793-1.257-3.617-1.886-5.484-1.886c-0.991,0-1.876,0.191-2.656,0.572c-0.781,0.381-1.172,1.028-1.172,1.942
		c0,0.267,0.095,0.532,0.285,0.8l4.057,1.83l2.8,1.257l5.146,2.285l16.396,7.312c0.535-2.248,0.802-4.531,0.802-6.855
		c0-7.353-2.553-13.543-7.655-18.573C45.505,8.285,39.331,5.714,32.057,5.714z"/>
</g>
</svg>
