<?xml version="1.0" encoding="utf-8"?>
<!-- Generator: Adobe Illustrator 16.0.4, SVG Export Plug-In . SVG Version: 6.00 Build 0)  -->
<!DOCTYPE svg PUBLIC "-//W3C//DTD SVG 1.1//EN" "http://www.w3.org/Graphics/SVG/1.1/DTD/svg11.dtd">
<svg version="1.1" id="Layer_1" xmlns="http://www.w3.org/2000/svg" xmlns:xlink="http://www.w3.org/1999/xlink" x="0px" y="0px"
	 width="420px" height="285px" viewBox="0 0 420 285" enable-background="new 0 0 420 285" xml:space="preserve">
<g>
	<path fill="#43007A" d="M333.997,220.449v5.143c0.033,0.396,0.099,0.672,0.198,0.829c0.099,0.157,0.305,0.268,0.617,0.333
		l-0.099,2.498c-0.841,0-1.513-0.059-2.015-0.174c-0.503-0.116-1.01-0.346-1.521-0.691c-1.186,0.575-2.396,0.865-3.633,0.865
		c-2.556,0-3.833-1.353-3.833-4.057c0-1.316,0.355-2.253,1.063-2.805c0.708-0.553,1.797-0.879,3.264-0.978l2.646-0.197v-0.767
		c0-0.511-0.116-0.859-0.347-1.05c-0.231-0.189-0.602-0.283-1.112-0.283l-4.647,0.196l-0.1-2.298
		c1.764-0.479,3.44-0.718,5.032-0.718c1.589,0,2.734,0.33,3.436,0.988C333.646,217.945,333.997,218.999,333.997,220.449z
		 M328.434,223.713c-0.922,0.082-1.384,0.577-1.384,1.482c0,0.907,0.403,1.36,1.211,1.36c0.627,0,1.311-0.099,2.053-0.296
		l0.371-0.099v-2.646L328.434,223.713z"/>
	<path fill="#43007A" d="M351.4,212.638v16.316h-3.411v-12.46l-3.536,2.273l-1.557-2.545l5.389-3.585H351.4z"/>
	<path fill="#43007A" d="M371.351,220.449v5.143c0.032,0.396,0.099,0.672,0.197,0.829s0.305,0.268,0.619,0.333l-0.1,2.498
		c-0.84,0-1.512-0.059-2.015-0.174c-0.503-0.116-1.01-0.346-1.521-0.691c-1.187,0.575-2.397,0.865-3.634,0.865
		c-2.556,0-3.832-1.353-3.832-4.057c0-1.316,0.354-2.253,1.063-2.805c0.708-0.553,1.795-0.879,3.263-0.978l2.645-0.197v-0.767
		c0-0.511-0.114-0.859-0.346-1.05c-0.23-0.189-0.602-0.283-1.112-0.283l-4.647,0.196l-0.099-2.298
		c1.764-0.479,3.44-0.718,5.03-0.718c1.591,0,2.736,0.33,3.437,0.988C371,217.945,371.351,218.999,371.351,220.449z
		 M365.788,223.713c-0.923,0.082-1.384,0.577-1.384,1.482c0,0.907,0.403,1.36,1.211,1.36c0.626,0,1.31-0.099,2.052-0.296l0.37-0.099
		v-2.646L365.788,223.713z"/>
	<path fill="#43007A" d="M377.827,228.954h-3.312v-12.361h3.288v0.692c1.121-0.658,2.151-0.988,3.091-0.988
		c1.647,0,2.784,0.485,3.411,1.459c0.626,0.973,0.939,2.471,0.939,4.498v6.7h-3.312v-6.602c0-1.054-0.124-1.832-0.371-2.334
		c-0.248-0.505-0.742-0.756-1.483-0.756c-0.676,0-1.326,0.116-1.953,0.346l-0.297,0.099V228.954z"/>
	<path fill="#43007A" d="M391.499,228.954h-3.313v-12.361h3.288v0.692c1.121-0.658,2.15-0.988,3.09-0.988
		c1.648,0,2.786,0.485,3.412,1.459c0.626,0.973,0.938,2.471,0.938,4.498v6.7h-3.312v-6.602c0-1.054-0.123-1.832-0.37-2.334
		c-0.247-0.505-0.742-0.756-1.483-0.756c-0.676,0-1.327,0.116-1.952,0.346l-0.297,0.099V228.954z"/>
	<path fill="#43007A" d="M402.524,217.989c0.874-1.129,2.332-1.692,4.375-1.692c2.044,0,3.503,0.563,4.376,1.692
		c0.874,1.131,1.311,2.716,1.311,4.76c0,4.334-1.895,6.503-5.687,6.503c-3.79,0-5.686-2.169-5.686-6.503
		C401.214,220.705,401.65,219.12,402.524,217.989z M405.083,225.542c0.338,0.593,0.943,0.891,1.816,0.891
		c0.874,0,1.479-0.298,1.818-0.891c0.337-0.594,0.507-1.523,0.507-2.793s-0.17-2.192-0.507-2.769
		c-0.339-0.577-0.944-0.864-1.818-0.864c-0.873,0-1.479,0.287-1.816,0.864c-0.338,0.576-0.507,1.499-0.507,2.769
		S404.745,224.948,405.083,225.542z"/>
</g>
<g>
	<path fill="#FF9800" d="M342.496,40.987v5.143c0.033,0.396,0.099,0.672,0.198,0.828c0.099,0.158,0.305,0.269,0.617,0.333
		l-0.099,2.498c-0.841,0-1.513-0.058-2.015-0.173c-0.503-0.116-1.01-0.346-1.521-0.692c-1.187,0.576-2.397,0.865-3.634,0.865
		c-2.556,0-3.833-1.351-3.833-4.055c0-1.318,0.355-2.253,1.063-2.806c0.708-0.552,1.797-0.878,3.264-0.977l2.646-0.197v-0.767
		c0-0.511-0.116-0.861-0.347-1.05c-0.231-0.19-0.602-0.285-1.112-0.285l-4.647,0.198l-0.1-2.299c1.764-0.478,3.44-0.717,5.032-0.717
		c1.589,0,2.734,0.33,3.436,0.989C342.146,38.483,342.496,39.538,342.496,40.987z M336.934,44.251
		c-0.923,0.082-1.385,0.577-1.385,1.482c0,0.907,0.403,1.36,1.211,1.36c0.627,0,1.311-0.099,2.053-0.297l0.371-0.099v-2.645
		L336.934,44.251z"/>
	<path fill="#FF9800" d="M361.828,36.215c-1.682-0.247-3.14-0.37-4.376-0.37c-2.341,0-3.511,1.27-3.511,3.808l0.52-0.148
		c1.088-0.314,1.953-0.471,2.596-0.471c1.862,0,3.264,0.428,4.203,1.286c0.939,0.857,1.409,2.188,1.409,3.993
		s-0.528,3.169-1.582,4.09c-1.056,0.923-2.585,1.385-4.587,1.385s-3.515-0.729-4.536-2.188c-1.022-1.458-1.533-3.605-1.533-6.44
		c0-2.835,0.585-4.923,1.755-6.267s2.853-2.015,5.044-2.015c1.286,0,2.662,0.182,4.129,0.544l0.767,0.173L361.828,36.215z
		 M356.76,42.001c-0.774,0-1.582,0.14-2.423,0.42l-0.42,0.123c0,2.853,0.923,4.277,2.769,4.277c0.792,0,1.401-0.218,1.83-0.656
		c0.429-0.437,0.643-1.05,0.643-1.841C359.158,42.776,358.358,42.001,356.76,42.001z"/>
	<path fill="#FF9800" d="M373.693,49.492h-3.312V37.131h3.289v0.692c1.137-0.659,2.109-0.989,2.917-0.989
		c1.335,0,2.364,0.387,3.09,1.162c1.517-0.775,2.9-1.162,4.153-1.162c1.631,0,2.765,0.475,3.399,1.421
		c0.634,0.948,0.952,2.46,0.952,4.537v6.7h-3.313v-6.601c0-1.054-0.115-1.833-0.347-2.335c-0.23-0.503-0.691-0.754-1.384-0.754
		c-0.527,0-1.17,0.115-1.929,0.346l-0.37,0.124c0.065,1.236,0.099,2.176,0.099,2.818v6.403h-3.312v-6.354
		c0-1.219-0.107-2.08-0.322-2.583c-0.214-0.503-0.684-0.754-1.409-0.754c-0.643,0-1.276,0.115-1.903,0.346l-0.297,0.099V49.492z"/>
	<path fill="#FF9800" d="M394.447,46.364c0.387,0.338,0.943,0.507,1.669,0.507c1.533,0,2.901-0.049,4.104-0.148l0.691-0.074
		l0.05,2.447c-1.896,0.462-3.609,0.692-5.143,0.692c-1.862,0-3.213-0.494-4.054-1.484c-0.841-0.988-1.261-2.595-1.261-4.82
		c0-4.433,1.821-6.65,5.463-6.65c3.593,0,5.39,1.862,5.39,5.588l-0.247,2.299h-7.269C393.857,45.478,394.06,46.027,394.447,46.364z
		 M398.094,42.199c0-0.989-0.157-1.677-0.47-2.064c-0.312-0.388-0.861-0.582-1.644-0.582c-0.783,0-1.335,0.203-1.656,0.605
		c-0.321,0.404-0.49,1.084-0.507,2.04H398.094z"/>
	<path fill="#FF9800" d="M412.605,40.221c-2.043-0.264-3.474-0.396-4.289-0.396c-0.816,0-1.344,0.073-1.583,0.222
		c-0.238,0.149-0.357,0.383-0.357,0.704c0,0.322,0.16,0.544,0.481,0.668c0.322,0.124,1.146,0.306,2.473,0.543
		c1.327,0.239,2.271,0.632,2.83,1.175c0.561,0.543,0.841,1.426,0.841,2.646c0,2.67-1.656,4.005-4.969,4.005
		c-1.088,0-2.407-0.148-3.955-0.446l-0.792-0.148l0.099-2.769c2.044,0.264,3.466,0.396,4.266,0.396c0.798,0,1.343-0.078,1.631-0.235
		c0.288-0.156,0.433-0.39,0.433-0.704c0-0.312-0.152-0.544-0.457-0.692c-0.305-0.149-1.097-0.33-2.373-0.544
		c-1.277-0.213-2.229-0.576-2.856-1.087c-0.625-0.511-0.939-1.422-0.939-2.732s0.446-2.3,1.336-2.966
		c0.89-0.667,2.035-1.001,3.437-1.001c0.972,0,2.299,0.157,3.979,0.469l0.815,0.149L412.605,40.221z"/>
	<path fill="#FF9800" d="M415.398,35.548v-3.362h3.312v3.362H415.398z M415.398,49.492V37.131h3.312v12.361H415.398z"/>
</g>
<g>
	<g>
		<g>
			<g>
				<path fill="#FF9800" d="M229.462,125.565L332.87,65.862c-21.796-37.75-59.818-59.703-103.408-59.703V125.565z"/>
			</g>
		</g>
		<g>
			<g>
				<path fill="#43007A" d="M229.462,125.565v119.406c65.945,0,119.405-53.461,119.405-119.406c0-22.091-4.952-40.57-15.997-59.703
					L229.462,125.565z"/>
			</g>
		</g>
		<g>
			<g>
				<path fill="#A11463" d="M229.462,125.565V6.159c-65.947,0-119.406,53.46-119.406,119.406
					c0,65.945,53.459,119.406,119.406,119.406c0.197,0-0.198,0,0,0V125.565z"/>
			</g>
		</g>
	</g>
	<circle fill="#EEEEEF" cx="229.541" cy="125.565" r="43.71"/>
</g>
<g>
	<path fill="#BA1873" d="M13.345,125.565v17.305h-3.288v-0.519c-1.153,0.543-2.15,0.817-2.991,0.817
		c-1.797,0-3.049-0.52-3.758-1.559c-0.708-1.037-1.062-2.682-1.062-4.931s0.424-3.89,1.273-4.92c0.849-1.029,2.13-1.545,3.844-1.545
		c0.527,0,1.261,0.083,2.2,0.248l0.47,0.099v-4.993H13.345z M9.687,139.904l0.346-0.075v-6.501
		c-0.906-0.165-1.714-0.248-2.422-0.248c-1.335,0-2.003,1.187-2.003,3.56c0,1.286,0.148,2.2,0.445,2.744
		c0.297,0.544,0.788,0.816,1.472,0.816C8.207,140.201,8.928,140.102,9.687,139.904z"/>
	<path fill="#BA1873" d="M25.879,134.366v5.142c0.033,0.396,0.099,0.672,0.198,0.829c0.099,0.156,0.305,0.268,0.618,0.332
		l-0.099,2.499c-0.841,0-1.513-0.058-2.015-0.174c-0.503-0.116-1.01-0.346-1.521-0.692c-1.186,0.577-2.397,0.866-3.633,0.866
		c-2.555,0-3.833-1.352-3.833-4.055c0-1.319,0.355-2.254,1.063-2.807c0.708-0.552,1.796-0.878,3.263-0.977l2.646-0.197v-0.767
		c0-0.511-0.115-0.861-0.346-1.05c-0.231-0.189-0.602-0.285-1.113-0.285l-4.647,0.198l-0.1-2.3c1.764-0.478,3.44-0.717,5.032-0.717
		c1.589,0,2.735,0.33,3.437,0.989C25.529,131.861,25.879,132.916,25.879,134.366z M20.316,137.629
		c-0.922,0.083-1.384,0.577-1.384,1.484c0,0.906,0.403,1.359,1.211,1.359c0.626,0,1.311-0.099,2.052-0.297l0.371-0.098v-2.646
		L20.316,137.629z"/>
	<path fill="#BA1873" d="M34.482,127.147c1.516-0.593,3.21-0.889,5.08-0.889c1.871,0,3.235,0.358,4.092,1.074
		c0.856,0.716,1.286,1.867,1.286,3.448c0,1.583-0.635,2.794-1.904,3.635c0.792,0.429,1.356,0.874,1.694,1.334
		c0.337,0.462,0.507,1.195,0.507,2.201c0,1.764-0.441,3.074-1.323,3.931c-0.882,0.857-2.295,1.286-4.24,1.286
		c-1.433,0-2.942-0.215-4.523-0.644l-0.792-0.197l0.173-2.597c1.846,0.313,3.395,0.47,4.647,0.47c1.698,0,2.547-0.726,2.547-2.176
		c0-0.609-0.219-1.095-0.656-1.458c-0.437-0.362-1.009-0.543-1.718-0.543h-3.287v-2.819h3.287c0.544,0,1.026-0.23,1.446-0.693
		c0.421-0.461,0.631-0.972,0.631-1.531c0-1.171-0.815-1.756-2.447-1.756c-1.138,0-2.349,0.116-3.634,0.346l-0.643,0.1
		L34.482,127.147z"/>
	<path fill="#BA1873" d="M63.233,134.366v5.142c0.032,0.396,0.099,0.672,0.197,0.829c0.099,0.156,0.305,0.268,0.619,0.332
		l-0.1,2.499c-0.84,0-1.512-0.058-2.015-0.174s-1.009-0.346-1.52-0.692c-1.187,0.577-2.398,0.866-3.634,0.866
		c-2.555,0-3.832-1.352-3.832-4.055c0-1.319,0.354-2.254,1.063-2.807c0.708-0.552,1.795-0.878,3.263-0.977l2.645-0.197v-0.767
		c0-0.511-0.115-0.861-0.346-1.05c-0.23-0.189-0.602-0.285-1.112-0.285l-4.647,0.198l-0.099-2.3c1.763-0.478,3.44-0.717,5.031-0.717
		c1.59,0,2.736,0.33,3.436,0.989C62.882,131.861,63.233,132.916,63.233,134.366z M57.67,137.629
		c-0.923,0.083-1.384,0.577-1.384,1.484c0,0.906,0.403,1.359,1.211,1.359c0.625,0,1.31-0.099,2.052-0.297l0.37-0.098v-2.646
		L57.67,137.629z"/>
	<path fill="#BA1873" d="M69.709,142.87h-3.312v-12.361h3.289v0.692c1.121-0.659,2.15-0.989,3.09-0.989
		c1.648,0,2.785,0.487,3.411,1.459c0.627,0.973,0.94,2.471,0.94,4.5v6.699h-3.312v-6.601c0-1.054-0.124-1.833-0.372-2.336
		c-0.247-0.503-0.741-0.754-1.482-0.754c-0.676,0-1.327,0.116-1.954,0.346l-0.297,0.098V142.87z"/>
	<path fill="#BA1873" d="M83.381,142.87h-3.314v-12.361h3.289v0.692c1.121-0.659,2.151-0.989,3.09-0.989
		c1.647,0,2.785,0.487,3.412,1.459c0.625,0.973,0.938,2.471,0.938,4.5v6.699h-3.312v-6.601c0-1.054-0.124-1.833-0.37-2.336
		c-0.248-0.503-0.742-0.754-1.484-0.754c-0.676,0-1.327,0.116-1.953,0.346l-0.296,0.098V142.87z"/>
	<path fill="#BA1873" d="M93.739,128.927v-3.362h3.312v3.362H93.739z M93.739,142.87v-12.361h3.312v12.361H93.739z"/>
</g>
<g>
	<g>
		<path fill="#BA1873" d="M229.462,280.176c-35.833,0-70.76-12.538-98.347-35.307c-27.223-22.465-46.088-53.769-53.123-88.146
			l1.009-0.205c6.987,34.146,25.728,65.241,52.769,87.557c27.403,22.615,62.097,35.07,97.691,35.07
			c35.204,0,68.319-11.588,95.77-33.51l0.642,0.806C298.24,268.51,264.901,280.176,229.462,280.176z"/>
	</g>
	<g>
		<g>
			<polygon fill="#BA1873" points="319.72,242.111 332.872,239.81 328.291,252.352 			"/>
		</g>
	</g>
</g>
<g>
	<g>
		<path fill="#43007A" d="M368.831,192.583l-0.929-0.446c10.046-20.853,15.14-43.251,15.14-66.571
			c0-17.438-2.899-34.545-8.617-50.846l0.972-0.341c5.756,16.411,8.676,33.632,8.676,51.187
			C384.072,149.043,378.943,171.59,368.831,192.583z"/>
	</g>
	<g>
		<g>
			<polygon fill="#43007A" points="369.269,78.758 371.446,65.584 381.768,74.057 			"/>
		</g>
	</g>
</g>
</svg>
