<?xml version="1.0" encoding="utf-8"?>
<!-- Generator: Adobe Illustrator 16.0.4, SVG Export Plug-In . SVG Version: 6.00 Build 0)  -->
<!DOCTYPE svg PUBLIC "-//W3C//DTD SVG 1.1//EN" "http://www.w3.org/Graphics/SVG/1.1/DTD/svg11.dtd">
<svg version="1.1" id="Layer_1" xmlns="http://www.w3.org/2000/svg" xmlns:xlink="http://www.w3.org/1999/xlink" x="0px" y="0px"
	 width="100px" height="100px" viewBox="0 0 100 100" enable-background="new 0 0 100 100" xml:space="preserve">
<path fill="#FFFFFF" d="M16.043,94.523c-1.096-0.745-2.127-1.59-3.1-2.494c-0.495-0.444-0.948-0.932-1.424-1.397l-1.334-1.491
	l-1.239-1.574l-1.121-1.663c-0.682-1.149-1.366-2.31-1.883-3.55c-0.286-0.609-0.562-1.221-0.759-1.867
	c-0.21-0.638-0.46-1.266-0.636-1.915c-0.306-1.311-0.668-2.618-0.771-3.97c-0.221-1.34-0.178-2.694-0.193-4.046
	c-0.041-0.68,0.099-1.349,0.148-2.019c0.081-0.689,0.115-1.312,0.236-2.055l0.437-1.937l0.217-0.972
	c0.08-0.323,0.225-0.647,0.336-0.973l0.717-1.949c0.274-0.629,0.624-1.216,0.934-1.828l0.48-0.91
	c0.188-0.283,0.395-0.559,0.593-0.839c0.409-0.548,0.776-1.132,1.222-1.649l1.389-1.514c0.464-0.505,1.015-0.917,1.519-1.376
	c0.5-0.473,1.059-0.862,1.618-1.255c0.552-0.402,1.108-0.799,1.712-1.115c1.167-0.702,2.396-1.287,3.645-1.817
	c1.253-0.516,2.534-0.963,3.846-1.294c1.312-0.351,2.055-0.612,3.439-0.746L25,46.851V46.85c0-0.901,0.458-1.749,0.528-2.622
	c0.08-0.862,0.513-1.724,0.734-2.571c0.229-0.843,0.643-1.686,1.017-2.487c0.356-0.811,0.861-1.589,1.348-2.339
	c0.532-0.716,1.077-1.458,1.725-2.086c0.298-0.334,0.635-0.65,0.985-0.932c0.344-0.291,0.676-0.603,1.036-0.868
	c0.737-0.51,1.458-1.055,2.259-1.448c0.414-0.211,0.734-0.43,1.229-0.631l1.141-0.464c0.75-0.312,1.681-0.574,2.507-0.828
	c0.843-0.189,1.676-0.431,2.528-0.535c0.848-0.148,1.698-0.238,2.547-0.31c0.851-0.076,1.7-0.098,2.547-0.1
	c0.851,0.005,1.692,0.028,2.536,0.091c0.839,0.06,1.677-0.383,2.509-0.262C53.842,28.693,55.473,29,57.103,29h0.002l-0.614,0.788
	c0.253-0.569,0.53-0.795,0.852-1.289c0.318-0.488,0.667-0.817,1.034-1.267c0.739-0.9,1.578-1.644,2.478-2.381
	c0.897-0.742,1.872-1.353,2.879-1.928c0.521-0.264,1.021-0.548,1.555-0.78c0.529-0.237,1.052-0.484,1.599-0.678
	c0.536-0.202,1.105-0.405,1.626-0.561c0.521-0.175,1.061-0.334,1.614-0.494c1.101-0.308,2.193-0.576,3.308-0.799
	c1.114-0.215,2.24-0.39,3.377-0.48c0.566-0.049,1.137-0.078,1.709-0.091c0.581-0.016,1.133,0.006,1.756,0.074l-0.073,1.119
	c-0.487,0.028-1.044,0.11-1.568,0.182c-0.533,0.082-1.065,0.176-1.595,0.291c-1.057,0.239-2.112,0.483-3.155,0.792
	c-1.04,0.296-2.088,0.614-3.104,0.976c-0.506,0.167-1.021,0.345-1.545,0.542c-0.536,0.185-1.001,0.378-1.496,0.588
	c-0.495,0.188-0.969,0.424-1.447,0.648c-0.482,0.215-0.932,0.496-1.4,0.739c-0.447,0.278-0.904,0.54-1.348,0.828
	c-0.442,0.286-0.873,0.59-1.303,0.897c-0.441,0.295-0.843,0.636-1.266,0.956c-0.42,0.325-0.82,0.671-1.225,1.017
	c-0.401,0.352-0.792,0.713-1.182,1.081c-0.375,0.369-0.775,0.757-1.117,1.127l-0.28-0.773L56.84,29h-0.005
	c-1.576,0-3.212,0.769-4.812,0.723c-0.805-0.03-1.609,0.522-2.409,0.542c-0.8,0.012-1.596,0.33-2.39,0.394
	c-0.792,0.078-1.583,0.291-2.364,0.405c-0.782,0.117-1.557,0.316-2.32,0.502c-0.772,0.148-1.51,0.433-2.263,0.625
	c-0.729,0.264-1.387,0.467-2.142,0.812l-1.121,0.521c-0.264,0.115-0.636,0.358-0.947,0.527c-0.677,0.334-1.26,0.805-1.873,1.231
	c-0.296,0.223-0.559,0.492-0.843,0.733c-0.288,0.235-0.549,0.503-0.792,0.786c-0.52,0.534-0.98,1.121-1.441,1.711
	c-0.407,0.627-0.852,1.236-1.217,1.904c-0.363,0.665-0.736,1.335-1.042,2.046c-0.33,0.698-0.73,1.427-1.012,2.164
	C27.592,45.366,27,46.14,27,46.88v0.002l0.122,0.457l-0.434,0.085c-1.24,0.214-2.497,0.515-3.728,0.905
	c-1.241,0.381-2.437,0.841-3.627,1.348c-1.179,0.531-2.329,1.108-3.418,1.793c-0.564,0.315-1.079,0.694-1.602,1.066
	c-0.529,0.363-1.056,0.729-1.525,1.169c-0.472,0.431-0.994,0.811-1.428,1.281l-1.305,1.406c-0.421,0.482-0.762,1.026-1.148,1.535
	l-0.56,0.777L7.88,59.544c-0.302,0.562-0.649,1.11-0.916,1.687l-0.701,1.762c-0.111,0.297-0.252,0.576-0.338,0.894L5.683,64.85
	l-0.484,1.927C5.1,67.341,5.03,68.042,4.943,68.665c-0.062,0.646-0.215,1.285-0.19,1.936c-0.015,1.295-0.092,2.599,0.091,3.887
	c0.062,1.304,0.354,2.569,0.602,3.848c0.144,0.633,0.366,1.25,0.545,1.877c0.166,0.631,0.41,1.236,0.666,1.838
	c0.457,1.225,1.08,2.379,1.704,3.531l1.029,1.677l1.134,1.615l1.236,1.541c0.446,0.484,0.868,0.994,1.334,1.461
	C14.009,92.826,14.99,93.723,16.043,94.523z"/>
<path fill="#FFFFFF" d="M82,22.854c1-0.362,1.381-0.665,2.005-0.9c0.072-0.027,7.243-2.69,9.031-2.844l0.122,1.116
	c-1.352,0.117-6.847,2.094-8.669,2.779c-0.601,0.225-1.237,0.538-1.898,0.928c1.854,0.804,6.335,3.254,6.335,8.217
	c0,3.022-1.617,5.89-4.123,7.31c-1.047,0.594-2.151,0.889-3.264,0.889c-1.226,0-2.463-0.354-3.645-1.063
	c-3.274-1.96-3.311-4.485-3.15-6.256C75.061,29.555,78,25.818,82,23.548 M81.435,24.684c-2.896,2.039-5.746,5.292-6.034,8.448
	c-0.19,2.11,0.842,3.857,3.07,5.193c1.901,1.135,3.956,1.195,5.781,0.159c2.16-1.223,3.557-3.71,3.557-6.333
	c0-5.398-6.272-7.434-6.336-7.455L81.435,24.684z"/>
<path fill="#FFFFFF" d="M94.214,26.258c-3.08-0.356-6.157-0.708-9.237-1.055c-1.19-0.133-2.421-0.233-3.667-0.334
	c-4.063-0.331-8.268-0.672-11.93-2.224c-3.068-1.3-5.268-3.546-6.033-6.167c-0.342-1.169-0.319-2.242,0.067-3.107
	c0.957-2.15,3.681-2.458,4.808-2.487c7.595-0.211,11.849,5.526,14.068,10.38l-1.02,0.466c-2.078-4.546-6.055-9.94-13.018-9.725
	c-0.713,0.018-3.099,0.21-3.815,1.823c-0.349,0.78-0.199,1.7-0.014,2.334c0.67,2.298,2.636,4.283,5.393,5.451
	c3.496,1.479,7.609,1.815,11.585,2.138c1.259,0.101,2.499,0.202,3.701,0.338c3.081,0.345,6.162,0.698,9.24,1.054L94.214,26.258z"/>
<rect x="36.681" y="65.213" transform="matrix(0.8741 0.4857 -0.4857 0.8741 41.3033 -8.5983)" fill="#FFFFFF" width="1.12" height="20.356"/>
<rect x="44.777" y="65.02" transform="matrix(0.8575 0.5145 -0.5145 0.8575 45.2493 -12.5821)" fill="#FFFFFF" width="1.122" height="20.742"/>
<rect x="34" y="71" fill="#FFFFFF" width="19" height="2"/>
<rect x="28.936" y="79" fill="#FFFFFF" width="20.528" height="0"/>
<path fill="#FFFFFF" d="M54.668,85.013c-0.588,0,0.11-0.128-0.2-0.383C53.877,84.143,55,83.361,55,82.536v-0.209
	c0-1.577,5.275-12.102,7.235-15.289l0.953,0.586C59.823,73.101,55,81.282,55,82.332v0.211c0,0.55-0.56,1.07-0.381,1.22
	c0.125,0.102,0.248,0.235,1.541-0.021c2.354-0.472,7.28-5.171,11.688-12.224c4.15-6.642,7.316-12.281,7.348-12.338l0.939,0.559
	c-0.032,0.057-3.295,5.715-7.455,12.375c-4.23,6.765-9.52,12.118-12.57,12.727C55.543,84.955,55.062,85.013,54.668,85.013z"/>
<path fill="#FFFFFF" d="M64.754,84.977c-1.309,0-2.526-0.481-3.118-1.616c-0.898-1.73,0.153-3.643,0.999-5.183
	c0.192-0.349,0.378-0.686,0.524-0.995l1.012,0.482c-0.155,0.327-0.349,0.683-0.554,1.055c-0.752,1.371-1.608,2.926-0.987,4.125
	c0.611,1.17,2.459,1.22,3.889,0.675c1.88-0.722,4.206-3.895,6.454-6.961c3.773-5.143,7.671-10.461,11.588-8.22
	c1.484,0.851,2.181,2.268,2.016,4.104c-0.392,4.382-5.609,10.219-8.533,11.255c-4.22,1.497-5.662,1.347-6.712-0.691
	c-0.399-0.776-0.504-1.433-0.307-1.95c0.023-0.065,0.052-0.124,0.081-0.181c-1.445,1.779-2.84,3.173-4.188,3.688
	C66.229,84.83,65.479,84.977,64.754,84.977z M71.671,80.358l0.408,1.045c-0.049,0.041-0.114,0.387,0.248,1.089
	c0.537,1.042,0.892,1.729,5.343,0.149c2.541-0.902,7.443-6.439,7.791-10.299c0.125-1.404-0.351-2.396-1.457-3.031
	c-3.047-1.743-6.646,3.163-10.127,7.908c-0.852,1.162-1.687,2.302-2.506,3.328C71.508,80.429,71.631,80.376,71.671,80.358z"/>
<path fill="#FFFFFF" d="M82.702,84.838c-1.384,0-2.69-0.55-3.853-2.013l0.881-0.697c1.995,2.513,4.453,1.789,8.288-0.424
	c0.99-0.571,1.887-1.604,2.663-2.777c1.119-2.729,2.644-5.824,3.098-6.73l1.035,0.416c-0.067,0.219-1.195,3.854-3.123,6.816
	c-0.705,1.706-1.193,3.114-1.151,3.626c0.009,0.119,0.053,0.197,0.154,0.268c0.582,0.426,2.372,0.256,3.455,0.005l0.259,1.09
	c-0.317,0.075-3.146,0.71-4.376-0.188c-0.363-0.264-0.575-0.64-0.61-1.085c-0.022-0.282,0.047-0.701,0.188-1.217
	c-0.33,0.288-0.674,0.541-1.03,0.748C86.607,83.812,84.587,84.838,82.702,84.838z"/>
<path fill="#FFFFFF" d="M73.367,66.762c-2.22,0-5.034-0.058-6.223-0.086l0.026-1.121c3.948,0.089,8.412,0.126,8.907,0.019
	l0.296,1.083C76.099,66.735,74.868,66.762,73.367,66.762z"/>
<path fill="#FFFFFF" d="M62.717,65.692c-0.335-0.156-0.562-0.435-0.644-0.791c-0.256-1.141,1.137-2.922,1.569-3.441l0.862,0.717
	c-0.891,1.068-1.457,2.238-1.332,2.491L62.717,65.692z"/>
</svg>
