<?xml version="1.0" encoding="utf-8"?>
<!-- Generator: Adobe Illustrator 16.0.4, SVG Export Plug-In . SVG Version: 6.00 Build 0)  -->
<!DOCTYPE svg PUBLIC "-//W3C//DTD SVG 1.1//EN" "http://www.w3.org/Graphics/SVG/1.1/DTD/svg11.dtd">
<svg version="1.1" id="Layer_1" xmlns="http://www.w3.org/2000/svg" xmlns:xlink="http://www.w3.org/1999/xlink" x="0px" y="0px"
	 width="100px" height="100px" viewBox="0 0 100 100" enable-background="new 0 0 100 100" xml:space="preserve">
<path fill="#1C2024" d="M98.19,12.74L86.775,1.328c-0.29-0.291-0.69-0.438-1.099-0.432c-0.41,0.015-0.796,0.201-1.063,0.511
	l-2.079,2.411L44.44,42.098c-0.135,0.135-0.242,0.336-0.315,0.512L43.978,43H11.853l-3.915-9.736
	c-0.306-0.756-1.166-1.143-1.923-0.836c-0.756,0.306-1.122,1.197-0.816,1.953L8.667,43H2.612C1.796,43,1,43.58,1,44.396v53.232
	C1,98.443,1.796,99,2.612,99h50.401C53.828,99,54,98.443,54,97.628V56.581l2.845-0.735c0.244-0.068,0.589-0.199,0.767-0.379
	l40.521-40.64C98.706,14.25,98.767,13.316,98.19,12.74z M52,96H4V46h5.86l16.148,39.925c0.2,0.494,0.65,0.812,1.179,0.881
	c0.064,0.008,0.127-0.004,0.191-0.004c0.461,0,0.901-0.225,1.182-0.6l12.64-16.862c0.49-0.652,0.357-1.58-0.295-2.069
	s-1.579-0.36-2.068,0.295L27.767,82.392L13.046,46h29.693l-5.492,13.033c-0.219,0.523-0.12,1.095,0.256,1.52
	c0.285,0.321,0.689,0.481,1.106,0.481c0.134,0,0.502-0.026,0.635-0.064L52,57.418V96z M41.157,57.285l5.581-13.308l0.522-0.524
	l9.082,9.226l-0.428,0.43L41.157,57.285z M58.425,50.585l-9.082-9.227L84.665,5.865c0.024-0.025,0.049-0.051,0.071-0.077
	l1.075-1.247l9.248,9.246L58.425,50.585z"/>
</svg>
