<?xml version="1.0" encoding="utf-8"?>
<!-- Generator: Adobe Illustrator 16.0.4, SVG Export Plug-In . SVG Version: 6.00 Build 0)  -->
<!DOCTYPE svg PUBLIC "-//W3C//DTD SVG 1.1//EN" "http://www.w3.org/Graphics/SVG/1.1/DTD/svg11.dtd">
<svg version="1.1" id="Layer_1" xmlns="http://www.w3.org/2000/svg" xmlns:xlink="http://www.w3.org/1999/xlink" x="0px" y="0px"
	 width="100px" height="100px" viewBox="0 0 100 100" enable-background="new 0 0 100 100" xml:space="preserve">
<path fill="#FFFFFF" d="M50.063,3.051c-26.233,0-47.5,21.266-47.5,47.5c0,26.231,21.267,47.5,47.5,47.5
	c26.232,0,47.499-21.269,47.499-47.5C97.562,24.316,76.296,3.051,50.063,3.051z M80.971,75.898h-7.499V44.428
	c0-1.487-0.118-2.878-0.355-4.18c-0.234-1.299-0.675-2.427-1.322-3.389c-0.646-0.958-1.543-1.716-2.69-2.275
	c-1.146-0.557-2.634-0.835-4.455-0.835c-3.709,0-6.618,1.113-8.736,3.342s-3.178,5.201-3.178,8.914v29.894h-7.5V44.428
	c0-1.549-0.133-2.971-0.397-4.273c-0.264-1.299-0.721-2.427-1.368-3.389c-0.648-0.958-1.514-1.701-2.603-2.229
	c-1.088-0.523-2.485-0.789-4.191-0.789c-2.178,0-4.044,0.464-5.603,1.394c-1.56,0.928-2.824,2.041-3.794,3.342
	c-0.97,1.299-1.676,2.644-2.117,4.039c-0.442,1.392-0.662,2.554-0.662,3.481v29.894h-7.5V27.901h7.058v7.056h0.177
	c3.412-5.445,8.324-8.172,14.737-8.172c2.823,0,5.382,0.621,7.677,1.858c2.294,1.239,3.911,3.342,4.854,6.313
	c1.528-2.6,3.541-4.61,6.043-6.035c2.5-1.423,5.25-2.137,8.249-2.137c2.297,0,4.371,0.266,6.222,0.792
	c1.855,0.525,3.442,1.345,4.768,2.461c1.321,1.113,2.35,2.551,3.087,4.314c0.737,1.765,1.103,3.886,1.103,6.36V75.898z"/>
</svg>
