<?xml version="1.0" encoding="utf-8"?>
<!-- Generator: Adobe Illustrator 16.0.4, SVG Export Plug-In . SVG Version: 6.00 Build 0)  -->
<!DOCTYPE svg PUBLIC "-//W3C//DTD SVG 1.1//EN" "http://www.w3.org/Graphics/SVG/1.1/DTD/svg11.dtd">
<svg version="1.1" id="Layer_1" xmlns="http://www.w3.org/2000/svg" xmlns:xlink="http://www.w3.org/1999/xlink" x="0px" y="0px"
	 width="100px" height="100px" viewBox="0 0 100 100" enable-background="new 0 0 100 100" xml:space="preserve">
<path fill="#FFFFFF" d="M94.68,5.429c-2.05-1.728-5.111-1.464-6.837,0.588L60.93,38.004l0.474,0.483l7.118,5.953L95.27,12.266
	C96.995,10.216,96.731,7.154,94.68,5.429z"/>
<path fill="#FFFFFF" d="M8.442,97.713c-1.184,0-2.371-0.432-3.307-1.299c-1.961-1.829-2.07-4.9-0.244-6.86L38.97,52.957
	L4.729,12.266c-1.725-2.05-1.462-5.112,0.589-6.837c2.051-1.725,5.113-1.462,6.838,0.588l37.006,43.979
	c1.581,1.877,1.51,4.638-0.161,6.432L11.996,96.168C11.039,97.196,9.742,97.713,8.442,97.713z"/>
<path fill="#FFFFFF" d="M95.108,89.554L66.683,59.031c-0.052-0.058-0.113-0.098-0.17-0.149l-7.159,6.465
	c0.078,0.097,0.14,0.203,0.228,0.298l28.423,30.523c0.955,1.028,2.254,1.545,3.553,1.545c1.185,0,2.372-0.432,3.308-1.299
	C96.826,94.585,96.936,91.514,95.108,89.554z"/>
</svg>
